# xmcd
#
# Track frame offsets: 
#        150
#        18121
#        41407
#        61408
#        80533
#        98390
#        115641
#        134043
#        147454
#        168813
#        186502
#        198562
#        223083
#        236314
#
# Disc length: 3421 seconds
#
# Revision: 0
# Processed by: cddbd v1.5.2PL0 Copyright (c) Steve Scherf et al.
# Submitted via: ExactAudioCopy v0.99pb4
#
DISCID=be0d5b0e
DTITLE=Klaus Brandl Band - Twilight Limbo
DYEAR=2008
DGENRE=Blues
TTITLE0=Poor Man´s Wine
TTITLE1=The things I only do with you
TTITLE2=Doomed by genetics
TTITLE3=One more step
TTITLE4=Lost Hippie Highway
TTITLE5=One dollar
TTITLE6=Blue meadows
TTITLE7=Good man gone
TTITLE8=Where are the trees
TTITLE9=Long distance guitarman
TTITLE10=Cathedral
TTITLE11=Pull down the shadows
TTITLE12=Visions
TTITLE13=Balos Moon
EXTD=Nürnberg, Germany
EXTT0=Poor Man´s Wine
EXTT1=
EXTT2=
EXTT3=
EXTT4=
EXTT5=
EXTT6=
EXTT7=
EXTT8=
EXTT9=
EXTT10=
EXTT11=
EXTT12=
EXTT13=
PLAYORDER=
